<?xml version="1.0" encoding="UTF-8"?><svg id="Capa_1" xmlns="http://www.w3.org/2000/svg" viewBox="0 0 453.54 453.54"><defs><style>.cls-1{fill:#1d1d1b;stroke-width:0px;}</style></defs><path class="cls-1" d="M298.89,244.96c-6.34,8.27-24.73,30.25-46.11,16.22-12.09-7.93-22.23-26.58-18.57-38.83.6-2.01,4.09-4.45,11.37-7.14,3.05-1.12,7.19-2.16,12.36-3.35,6.89-1.61,12.67-3.5,17.33-5.66,4.65-2.17,8.35-5.11,11.07-8.85,2.73-3.74,4.1-8.38,4.1-13.93s-1.44-9.98-4.33-14.09c-2.88-4.1-7.05-7.26-12.51-9.47-5.47-2.21-11.89-3.31-19.27-3.31-5.9,0-11,.74-15.3,2.2-4.19,1.42-7.68,3.29-10.47,5.62-2.79-2.33-6.28-4.2-10.47-5.62-4.3-1.46-9.4-2.2-15.3-2.2-7.38,0-13.8,1.1-19.27,3.31-5.46,2.21-9.63,5.37-12.51,9.47-2.89,4.11-4.33,8.81-4.33,14.09,0,5.55,1.37,10.19,4.1,13.93,2.72,3.74,6.42,6.68,11.07,8.85,4.66,2.16,10.44,4.05,17.33,5.66,5.17,1.19,9.31,2.23,12.36,3.35,7.28,2.69,10.77,5.13,11.37,7.14,3.66,12.25-6.48,30.9-18.57,38.83-21.38,14.03-39.77-7.95-46.11-16.22-18.16-22.08-48.06,4.56-30.03,26.73,22.38,27.48,56.66,31.55,76.97,19.55,14.58-8.61,17.95-18.93,21.5-24.77.42-.71,1.16-1.09,1.89-1.1.73,0,1.47.39,1.89,1.1,3.55,5.84,6.92,16.16,21.5,24.77,20.31,12,54.59,7.93,76.97-19.55,18.03-22.17-11.87-48.81-30.03-26.73Z"/></svg>